<svg width="32" height="32" fill="none" xmlns="http://www.w3.org/2000/svg"><rect width="32" height="32" rx="7" fill="#FEF0F0"/><path d="M22.585 12.223a4.298 4.298 0 00-.948-1.37A4.453 4.453 0 0018.53 9.6a4.478 4.478 0 00-2.796.979A4.478 4.478 0 0012.94 9.6a4.453 4.453 0 00-3.107 1.253c-.404.39-.726.856-.949 1.37a4.213 4.213 0 00-.35 1.684c0 .551.114 1.125.339 1.709.188.488.458.994.803 1.505.547.809 1.299 1.652 2.232 2.507a24.93 24.93 0 003.144 2.436l.395.252c.175.11.4.11.575 0l.395-.252a25.245 25.245 0 003.144-2.436c.933-.855 1.685-1.698 2.232-2.507a7.538 7.538 0 00.803-1.505 4.751 4.751 0 00.338-1.709 4.182 4.182 0 00-.348-1.685z" fill="#FF8585"/></svg>